<mxfile host="app.diagrams.net" modified="2020-10-01T06:27:05.107Z" agent="5.0 (Windows NT 10.0; Win64; x64) AppleWebKit/537.36 (KHTML, like Gecko) Chrome/85.0.4183.121 Safari/537.36" etag="G_r64FhvuqIm3ttSDKrL" version="13.7.7" type="github" pages="3">
  <diagram id="TW-A-ixEIknbUNzaK7g7" name="Page-1">
    <mxGraphModel dx="2249" dy="762" grid="1" gridSize="10" guides="1" tooltips="1" connect="1" arrows="1" fold="1" page="1" pageScale="1" pageWidth="827" pageHeight="1169" math="0" shadow="0">
      <root>
        <mxCell id="0" />
        <mxCell id="1" parent="0" />
        <mxCell id="heYaZ9VfZR7EMVxAdLfT-1" value="" style="whiteSpace=wrap;html=1;aspect=fixed;" vertex="1" parent="1">
          <mxGeometry x="-720" width="770" height="770" as="geometry" />
        </mxCell>
        <mxCell id="heYaZ9VfZR7EMVxAdLfT-2" value="" style="verticalLabelPosition=bottom;verticalAlign=top;html=1;shape=trapezoid;perimeter=trapezoidPerimeter;whiteSpace=wrap;size=0.23;arcSize=10;flipV=1;strokeColor=#B09500;fontColor=#ffffff;fillColor=#FFE100;" vertex="1" parent="1">
          <mxGeometry x="-690" y="190" width="710" height="540" as="geometry" />
        </mxCell>
        <mxCell id="heYaZ9VfZR7EMVxAdLfT-3" value="" style="shape=document;whiteSpace=wrap;html=1;boundedLbl=1;rotation=-180;" vertex="1" parent="1">
          <mxGeometry x="-700.94" y="30" width="710.94" height="200" as="geometry" />
        </mxCell>
        <mxCell id="heYaZ9VfZR7EMVxAdLfT-4" value="&lt;font style=&quot;font-size: 45px&quot; face=&quot;Times New Roman&quot;&gt;Inició de sesión&amp;nbsp;&lt;/font&gt;" style="rounded=0;whiteSpace=wrap;html=1;fillColor=#FFE100;gradientColor=none;" vertex="1" parent="1">
          <mxGeometry x="-520" y="590" width="380" height="70" as="geometry" />
        </mxCell>
        <mxCell id="heYaZ9VfZR7EMVxAdLfT-5" value="&lt;font style=&quot;font-size: 45px&quot; face=&quot;Times New Roman&quot;&gt;Contraseña&lt;/font&gt;" style="rounded=0;whiteSpace=wrap;html=1;fillColor=#FFE100;gradientColor=none;" vertex="1" parent="1">
          <mxGeometry x="-535.47" y="450" width="380" height="65" as="geometry" />
        </mxCell>
        <mxCell id="heYaZ9VfZR7EMVxAdLfT-6" value="&lt;font face=&quot;Times New Roman&quot;&gt;&lt;font style=&quot;font-size: 45px&quot;&gt;Usuario&lt;/font&gt;&lt;font style=&quot;font-size: 30px&quot;&gt;&amp;nbsp;&lt;/font&gt;&lt;/font&gt;" style="rounded=0;whiteSpace=wrap;html=1;fillColor=#FFE100;gradientColor=none;fontSize=15;" vertex="1" parent="1">
          <mxGeometry x="-535.47" y="300" width="380" height="70" as="geometry" />
        </mxCell>
        <mxCell id="heYaZ9VfZR7EMVxAdLfT-7" value="&lt;font style=&quot;font-size: 32px&quot;&gt;Logo&lt;/font&gt;" style="ellipse;whiteSpace=wrap;html=1;fillColor=#FFE100;gradientColor=none;fontSize=15;" vertex="1" parent="1">
          <mxGeometry x="-510" y="90" width="360" height="110" as="geometry" />
        </mxCell>
      </root>
    </mxGraphModel>
  </diagram>
  <diagram id="Lk50FhcbVBuowkxIOB6h" name="Page-2">
    <mxGraphModel dx="2249" dy="762" grid="1" gridSize="10" guides="1" tooltips="1" connect="1" arrows="1" fold="1" page="1" pageScale="1" pageWidth="827" pageHeight="1169" math="0" shadow="0">
      <root>
        <mxCell id="K8oEUVKuanUdhAdAAaoP-0" />
        <mxCell id="K8oEUVKuanUdhAdAAaoP-1" parent="K8oEUVKuanUdhAdAAaoP-0" />
        <mxCell id="K8oEUVKuanUdhAdAAaoP-2" value="" style="whiteSpace=wrap;html=1;aspect=fixed;" vertex="1" parent="K8oEUVKuanUdhAdAAaoP-1">
          <mxGeometry x="-552.5" y="460" width="770" height="770" as="geometry" />
        </mxCell>
        <mxCell id="K8oEUVKuanUdhAdAAaoP-3" value="" style="shape=offPageConnector;whiteSpace=wrap;html=1;fillColor=#FFE100;gradientColor=none;fontSize=31;" vertex="1" parent="K8oEUVKuanUdhAdAAaoP-1">
          <mxGeometry x="-470" y="620" width="650" height="500" as="geometry" />
        </mxCell>
        <mxCell id="K8oEUVKuanUdhAdAAaoP-4" value="" style="shape=loopLimit;whiteSpace=wrap;html=1;fillColor=#FFE100;gradientColor=none;fontSize=31;rotation=-180;" vertex="1" parent="K8oEUVKuanUdhAdAAaoP-1">
          <mxGeometry x="-470" y="930" width="650" height="300" as="geometry" />
        </mxCell>
        <mxCell id="K8oEUVKuanUdhAdAAaoP-5" value="" style="shape=document;whiteSpace=wrap;html=1;boundedLbl=1;rotation=-180;verticalAlign=middle;" vertex="1" parent="K8oEUVKuanUdhAdAAaoP-1">
          <mxGeometry x="-485" y="460" width="665" height="160" as="geometry" />
        </mxCell>
        <mxCell id="K8oEUVKuanUdhAdAAaoP-6" value="&lt;font style=&quot;font-size: 32px&quot;&gt;Logo&lt;/font&gt;" style="ellipse;whiteSpace=wrap;html=1;fillColor=#FFE100;gradientColor=none;fontSize=15;" vertex="1" parent="K8oEUVKuanUdhAdAAaoP-1">
          <mxGeometry x="-332.5" y="500" width="350" height="110" as="geometry" />
        </mxCell>
        <mxCell id="K8oEUVKuanUdhAdAAaoP-7" value="Usuario *" style="text;html=1;strokeColor=none;fillColor=none;align=center;verticalAlign=middle;whiteSpace=wrap;rounded=0;fontSize=31;" vertex="1" parent="K8oEUVKuanUdhAdAAaoP-1">
          <mxGeometry x="-380" y="650" width="140" height="20" as="geometry" />
        </mxCell>
        <mxCell id="K8oEUVKuanUdhAdAAaoP-8" value="" style="rounded=1;whiteSpace=wrap;html=1;fillColor=#FFE100;gradientColor=none;fontSize=31;" vertex="1" parent="K8oEUVKuanUdhAdAAaoP-1">
          <mxGeometry x="-390" y="860" width="440" height="80" as="geometry" />
        </mxCell>
        <mxCell id="K8oEUVKuanUdhAdAAaoP-9" value="" style="rounded=1;whiteSpace=wrap;html=1;fillColor=#FFE100;gradientColor=none;fontSize=31;" vertex="1" parent="K8oEUVKuanUdhAdAAaoP-1">
          <mxGeometry x="-390" y="700" width="440" height="80" as="geometry" />
        </mxCell>
        <mxCell id="K8oEUVKuanUdhAdAAaoP-10" value="Contraseña *" style="text;html=1;strokeColor=none;fillColor=none;align=center;verticalAlign=middle;whiteSpace=wrap;rounded=0;fontSize=31;" vertex="1" parent="K8oEUVKuanUdhAdAAaoP-1">
          <mxGeometry x="-400" y="820" width="190" height="20" as="geometry" />
        </mxCell>
        <mxCell id="K8oEUVKuanUdhAdAAaoP-11" value="&lt;span style=&quot;font-family: &amp;#34;times new roman&amp;#34; ; font-size: 45px&quot;&gt;Inició de sesión&amp;nbsp;&lt;/span&gt;" style="rounded=1;whiteSpace=wrap;html=1;fillColor=#FFE100;gradientColor=none;fontSize=31;" vertex="1" parent="K8oEUVKuanUdhAdAAaoP-1">
          <mxGeometry x="-390" y="1010" width="440" height="80" as="geometry" />
        </mxCell>
        <mxCell id="K8oEUVKuanUdhAdAAaoP-12" style="edgeStyle=orthogonalEdgeStyle;rounded=0;orthogonalLoop=1;jettySize=auto;html=1;exitX=0.5;exitY=1;exitDx=0;exitDy=0;" edge="1" parent="K8oEUVKuanUdhAdAAaoP-1" source="K8oEUVKuanUdhAdAAaoP-10" target="K8oEUVKuanUdhAdAAaoP-10">
          <mxGeometry relative="1" as="geometry" />
        </mxCell>
      </root>
    </mxGraphModel>
  </diagram>
  <diagram id="SM3x7Jk5x0n5qglzd0zX" name="Page-3">
    <mxGraphModel dx="2249" dy="762" grid="1" gridSize="10" guides="1" tooltips="1" connect="1" arrows="1" fold="1" page="1" pageScale="1" pageWidth="827" pageHeight="1169" math="0" shadow="0">
      <root>
        <mxCell id="orSdCoSIvWCg2W1D-Wgt-0" />
        <mxCell id="orSdCoSIvWCg2W1D-Wgt-1" parent="orSdCoSIvWCg2W1D-Wgt-0" />
        <mxCell id="orSdCoSIvWCg2W1D-Wgt-2" value="" style="whiteSpace=wrap;html=1;aspect=fixed;" vertex="1" parent="orSdCoSIvWCg2W1D-Wgt-1">
          <mxGeometry x="-500" y="340" width="770" height="770" as="geometry" />
        </mxCell>
        <mxCell id="orSdCoSIvWCg2W1D-Wgt-3" value="&lt;font style=&quot;font-size: 32px&quot;&gt;Logo&lt;/font&gt;" style="ellipse;whiteSpace=wrap;html=1;fontSize=15;" vertex="1" parent="orSdCoSIvWCg2W1D-Wgt-1">
          <mxGeometry x="-360" y="480" width="560" height="150" as="geometry" />
        </mxCell>
        <mxCell id="orSdCoSIvWCg2W1D-Wgt-4" value="&lt;span style=&quot;color: rgba(0 , 0 , 0 , 0) ; font-family: monospace ; font-size: 0px&quot;&gt;%3CmxGraphModel%3E%3Croot%3E%3CmxCell%20id%3D%220%22%2F%3E%3CmxCell%20id%3D%221%22%20parent%3D%220%22%2F%3E%3CmxCell%20id%3D%222%22%20value%3D%22%26lt%3Bfont%20style%3D%26quot%3Bfont-size%3A%2045px%26quot%3B%20face%3D%26quot%3BTimes%20New%20Roman%26quot%3B%26gt%3BContrase%C3%B1a%26lt%3B%2Ffont%26gt%3B%22%20style%3D%22rounded%3D0%3BwhiteSpace%3Dwrap%3Bhtml%3D1%3BfillColor%3D%23FFE100%3BgradientColor%3Dnone%3B%22%20vertex%3D%221%22%20parent%3D%221%22%3E%3CmxGeometry%20x%3D%22-420%22%20y%3D%22680%22%20width%3D%22460%22%20height%3D%22100%22%20as%3D%22geometry%22%2F%3E%3C%2FmxCell%3E%3CmxCell%20id%3D%223%22%20value%3D%22%26lt%3Bfont%20face%3D%26quot%3BTimes%20New%20Roman%26quot%3B%26gt%3B%26lt%3Bfont%20style%3D%26quot%3Bfont-size%3A%2045px%26quot%3B%26gt%3BUsuario%26lt%3B%2Ffont%26gt%3B%26lt%3Bfont%20style%3D%26quot%3Bfont-size%3A%2030px%26quot%3B%26gt%3B%26amp%3Bnbsp%3B%26lt%3B%2Ffont%26gt%3B%26lt%3B%2Ffont%26gt%3B%22%20style%3D%22rounded%3D0%3BwhiteSpace%3Dwrap%3Bhtml%3D1%3BfillColor%3D%23FFE100%3BgradientColor%3Dnone%3BfontSize%3D15%3B%22%20vertex%3D%221%22%20parent%3D%221%22%3E%3CmxGeometry%20x%3D%22-410%22%20y%3D%22500%22%20width%3D%22460%22%20height%3D%22100%22%20as%3D%22geometry%22%2F%3E%3C%2FmxCell%3E%3C%2Froot%3E%3C%2FmxGraphModel%3E&lt;/span&gt;&lt;span style=&quot;color: rgba(0 , 0 , 0 , 0) ; font-family: monospace ; font-size: 0px&quot;&gt;%3CmxGraphModel%3E%3Croot%3E%3CmxCell%20id%3D%220%22%2F%3E%3CmxCell%20id%3D%221%22%20parent%3D%220%22%2F%3E%3CmxCell%20id%3D%222%22%20value%3D%22%26lt%3Bfont%20style%3D%26quot%3Bfont-size%3A%2045px%26quot%3B%20face%3D%26quot%3BTimes%20New%20Roman%26quot%3B%26gt%3BContrase%C3%B1a%26lt%3B%2Ffont%26gt%3B%22%20style%3D%22rounded%3D0%3BwhiteSpace%3Dwrap%3Bhtml%3D1%3BfillColor%3D%23FFE100%3BgradientColor%3Dnone%3B%22%20vertex%3D%221%22%20parent%3D%221%22%3E%3CmxGeometry%20x%3D%22-420%22%20y%3D%22680%22%20width%3D%22460%22%20height%3D%22100%22%20as%3D%22geometry%22%2F%3E%3C%2FmxCell%3E%3CmxCell%20id%3D%223%22%20value%3D%22%26lt%3Bfont%20face%3D%26quot%3BTimes%20New%20Roman%26quot%3B%26gt%3B%26lt%3Bfont%20style%3D%26quot%3Bfont-size%3A%2045px%26quot%3B%26gt%3BUsuario%26lt%3B%2Ffont%26gt%3B%26lt%3Bfont%20style%3D%26quot%3Bfont-size%3A%2030px%26quot%3B%26gt%3B%26amp%3Bnbsp%3B%26lt%3B%2Ffont%26gt%3B%26lt%3B%2Ffont%26gt%3B%22%20style%3D%22rounded%3D0%3BwhiteSpace%3Dwrap%3Bhtml%3D1%3BfillColor%3D%23FFE100%3BgradientColor%3Dnone%3BfontSize%3D15%3B%22%20vertex%3D%221%22%20parent%3D%221%22%3E%3CmxGeometry%20x%3D%22-410%22%20y%3D%22500%22%20width%3D%22460%22%20height%3D%22100%22%20as%3D%22geometry%22%2F%3E%3C%2FmxCell%3E%3C%2Froot%3E%3C%2FmxGraphModel%3E&lt;/span&gt;&lt;span style=&quot;color: rgba(0 , 0 , 0 , 0) ; font-family: monospace ; font-size: 0px&quot;&gt;%3CmxGraphModel%3E%3Croot%3E%3CmxCell%20id%3D%220%22%2F%3E%3CmxCell%20id%3D%221%22%20parent%3D%220%22%2F%3E%3CmxCell%20id%3D%222%22%20value%3D%22%26lt%3Bfont%20style%3D%26quot%3Bfont-size%3A%2045px%26quot%3B%20face%3D%26quot%3BTimes%20New%20Roman%26quot%3B%26gt%3BContrase%C3%B1a%26lt%3B%2Ffont%26gt%3B%22%20style%3D%22rounded%3D0%3BwhiteSpace%3Dwrap%3Bhtml%3D1%3BfillColor%3D%23FFE100%3BgradientColor%3Dnone%3B%22%20vertex%3D%221%22%20parent%3D%221%22%3E%3CmxGeometry%20x%3D%22-420%22%20y%3D%22680%22%20width%3D%22460%22%20height%3D%22100%22%20as%3D%22geometry%22%2F%3E%3C%2FmxCell%3E%3CmxCell%20id%3D%223%22%20value%3D%22%26lt%3Bfont%20face%3D%26quot%3BTimes%20New%20Roman%26quot%3B%26gt%3B%26lt%3Bfont%20style%3D%26quot%3Bfont-size%3A%2045px%26quot%3B%26gt%3BUsuario%26lt%3B%2Ffont%26gt%3B%26lt%3Bfont%20style%3D%26quot%3Bfont-size%3A%2030px%26quot%3B%26gt%3B%26amp%3Bnbsp%3B%26lt%3B%2Ffont%26gt%3B%26lt%3B%2Ffont%26gt%3B%22%20style%3D%22rounded%3D0%3BwhiteSpace%3Dwrap%3Bhtml%3D1%3BfillColor%3D%23FFE100%3BgradientColor%3Dnone%3BfontSize%3D15%3B%22%20vertex%3D%221%22%20parent%3D%221%22%3E%3CmxGeometry%20x%3D%22-410%22%20y%3D%22500%22%20width%3D%22460%22%20height%3D%22100%22%20as%3D%22geometry%22%2F%3E%3C%2FmxCell%3E%3C%2Froot%3E%3C%2FmxGraphModel%3E&lt;/span&gt;&lt;span style=&quot;color: rgba(0 , 0 , 0 , 0) ; font-family: monospace ; font-size: 0px&quot;&gt;%3CmxGraphModel%3E%3Croot%3E%3CmxCell%20id%3D%220%22%2F%3E%3CmxCell%20id%3D%221%22%20parent%3D%220%22%2F%3E%3CmxCell%20id%3D%222%22%20value%3D%22%26lt%3Bfont%20style%3D%26quot%3Bfont-size%3A%2045px%26quot%3B%20face%3D%26quot%3BTimes%20New%20Roman%26quot%3B%26gt%3BContrase%C3%B1a%26lt%3B%2Ffont%26gt%3B%22%20style%3D%22rounded%3D0%3BwhiteSpace%3Dwrap%3Bhtml%3D1%3BfillColor%3D%23FFE100%3BgradientColor%3Dnone%3B%22%20vertex%3D%221%22%20parent%3D%221%22%3E%3CmxGeometry%20x%3D%22-420%22%20y%3D%22680%22%20width%3D%22460%22%20height%3D%22100%22%20as%3D%22geometry%22%2F%3E%3C%2FmxCell%3E%3CmxCell%20id%3D%223%22%20value%3D%22%26lt%3Bfont%20face%3D%26quot%3BTimes%20New%20Roman%26quot%3B%26gt%3B%26lt%3Bfont%20style%3D%26quot%3Bfont-size%3A%2045px%26quot%3B%26gt%3BUsuario%26lt%3B%2Ffont%26gt%3B%26lt%3Bfont%20style%3D%26quot%3Bfont-size%3A%2030px%26quot%3B%26gt%3B%26amp%3Bnbsp%3B%26lt%3B%2Ffont%26gt%3B%26lt%3B%2Ffont%26gt%3B%22%20style%3D%22rounded%3D0%3BwhiteSpace%3Dwrap%3Bhtml%3D1%3BfillColor%3D%23FFE100%3BgradientColor%3Dnone%3BfontSize%3D15%3B%22%20vertex%3D%221%22%20parent%3D%221%22%3E%3CmxGeometry%20x%3D%22-410%22%20y%3D%22500%22%20width%3D%22460%22%20height%3D%22100%22%20as%3D%22geometry%22%2F%3E%3C%2FmxCell%3E%3C%2Froot%3E%3C%2FmxGraphModel%3E&lt;/span&gt;&lt;span style=&quot;color: rgba(0 , 0 , 0 , 0) ; font-family: monospace ; font-size: 0px&quot;&gt;%3CmxGraphModel%3E%3Croot%3E%3CmxCell%20id%3D%220%22%2F%3E%3CmxCell%20id%3D%221%22%20parent%3D%220%22%2F%3E%3CmxCell%20id%3D%222%22%20value%3D%22%26lt%3Bfont%20style%3D%26quot%3Bfont-size%3A%2045px%26quot%3B%20face%3D%26quot%3BTimes%20New%20Roman%26quot%3B%26gt%3BContrase%C3%B1a%26lt%3B%2Ffont%26gt%3B%22%20style%3D%22rounded%3D0%3BwhiteSpace%3Dwrap%3Bhtml%3D1%3BfillColor%3D%23FFE100%3BgradientColor%3Dnone%3B%22%20vertex%3D%221%22%20parent%3D%221%22%3E%3CmxGeometry%20x%3D%22-420%22%20y%3D%22680%22%20width%3D%22460%22%20height%3D%22100%22%20as%3D%22geometry%22%2F%3E%3C%2FmxCell%3E%3CmxCell%20id%3D%223%22%20value%3D%22%26lt%3Bfont%20face%3D%26quot%3BTimes%20New%20Roman%26quot%3B%26gt%3B%26lt%3Bfont%20style%3D%26quot%3Bfont-size%3A%2045px%26quot%3B%26gt%3BUsuario%26lt%3B%2Ffont%26gt%3B%26lt%3Bfont%20style%3D%26quot%3Bfont-size%3A%2030px%26quot%3B%26gt%3B%26amp%3Bnbsp%3B%26lt%3B%2Ffont%26gt%3B%26lt%3B%2Ffont%26gt%3B%22%20style%3D%22rounded%3D0%3BwhiteSpace%3Dwrap%3Bhtml%3D1%3BfillColor%3D%23FFE100%3BgradientColor%3Dnone%3BfontSize%3D15%3B%22%20vertex%3D%221%22%20parent%3D%221%22%3E%3CmxGeometry%20x%3D%22-410%22%20y%3D%22500%22%20width%3D%22460%22%20height%3D%22100%22%20as%3D%22geometry%22%2F%3E%3C%2FmxCell%3E%3C%2Froot%3E%3C%2FmxGraphModel%3E&lt;/span&gt;" style="whiteSpace=wrap;html=1;aspect=fixed;fontSize=31;" vertex="1" parent="orSdCoSIvWCg2W1D-Wgt-1">
          <mxGeometry x="-282.5" y="640" width="445" height="445" as="geometry" />
        </mxCell>
        <mxCell id="orSdCoSIvWCg2W1D-Wgt-5" value="&lt;font style=&quot;font-size: 45px&quot; face=&quot;Times New Roman&quot;&gt;Contraseña&lt;/font&gt;" style="rounded=0;whiteSpace=wrap;html=1;" vertex="1" parent="orSdCoSIvWCg2W1D-Wgt-1">
          <mxGeometry x="-260" y="760" width="388.75" height="80" as="geometry" />
        </mxCell>
        <mxCell id="orSdCoSIvWCg2W1D-Wgt-6" value="&lt;font face=&quot;Times New Roman&quot;&gt;&lt;font style=&quot;font-size: 45px&quot;&gt;Usuario&lt;/font&gt;&lt;font style=&quot;font-size: 30px&quot;&gt;&amp;nbsp;&lt;/font&gt;&lt;/font&gt;" style="rounded=0;whiteSpace=wrap;html=1;fontSize=15;" vertex="1" parent="orSdCoSIvWCg2W1D-Wgt-1">
          <mxGeometry x="-260" y="670" width="390" height="70" as="geometry" />
        </mxCell>
        <mxCell id="orSdCoSIvWCg2W1D-Wgt-7" value="Inició de sesión" style="labelPosition=center;verticalLabelPosition=middle;align=center;html=1;shape=mxgraph.basic.button;dx=10;fillColor=#FFE100;gradientColor=none;fontSize=31;" vertex="1" parent="orSdCoSIvWCg2W1D-Wgt-1">
          <mxGeometry x="-265" y="900" width="400" height="121" as="geometry" />
        </mxCell>
        <mxCell id="orSdCoSIvWCg2W1D-Wgt-8" value="" style="verticalLabelPosition=bottom;verticalAlign=top;html=1;shape=mxgraph.basic.half_circle;fontSize=31;rotation=-165;" vertex="1" parent="orSdCoSIvWCg2W1D-Wgt-1">
          <mxGeometry x="-370" y="400" width="170" height="90" as="geometry" />
        </mxCell>
        <mxCell id="orSdCoSIvWCg2W1D-Wgt-9" value="" style="shape=loopLimit;whiteSpace=wrap;html=1;fontSize=31;rotation=-120;strokeColor=#d6b656;fillColor=#FFE100;" vertex="1" parent="orSdCoSIvWCg2W1D-Wgt-1">
          <mxGeometry x="-450" y="375" width="170" height="210" as="geometry" />
        </mxCell>
      </root>
    </mxGraphModel>
  </diagram>
</mxfile>
